<?xml version="1.0" encoding="utf-8"?>
<!-- Generator: Adobe Illustrator 24.3.0, SVG Export Plug-In . SVG Version: 6.00 Build 0)  -->
<svg version="1.2" baseProfile="tiny" id="Ebene_1" xmlns="http://www.w3.org/2000/svg" xmlns:xlink="http://www.w3.org/1999/xlink"
	 x="0px" y="0px" viewBox="0 0 400 400" overflow="visible" xml:space="preserve">
<path id="XMLID_2063_" fill="#606060" d="M194,103.7l0.3,0.9c0,0.3,0.1,0.6,0.3,1c0.1,0.3,0.3,0.7,0.5,0.9c0.2,0.2,0.4,0.2,0.7,0.1
	c0.3-0.2,0.6-0.4,0.8-0.8c0.3-0.3,0.4-0.6,0.5-0.8c0.3-0.3,0.4-0.6,0.5-0.8c0.4-0.6,0.7-1.1,1-1.6c0.7-1.1,1.3-2.2,1.7-3.3
	c0.5-1,0.8-2.1,1.1-3.3c0.1-0.6,0.1-1.1,0-1.8c-0.1-1.6-0.8-3-2.2-3.5c-2-0.7-4.2-0.3-5.3,1.7c-0.3,0.5-0.5,1.1-0.6,1.7
	c-0.2,1.2-0.3,2.4-0.3,3.8c0,1.3,0.3,2.6,0.5,3.9C193.7,102.4,193.9,103.1,194,103.7z"/>
<path id="XMLID_2062_" fill="#606060" d="M158.4,118c1.1,0.6,2.3,1,3.5,1.3c1.2,0.3,2.5,0.5,3.8,0.6c0.6,0.1,1.3,0.1,1.9,0.1
	c0.3,0,0.7,0,1,0c0.3,0,0.7,0,1,0c0.3,0,0.6-0.1,0.9-0.3c0.3-0.2,0.5-0.4,0.4-0.7c-0.1-0.3-0.2-0.6-0.5-1c-0.3-0.3-0.5-0.5-0.6-0.7
	c-0.2-0.3-0.5-0.4-0.6-0.7c-0.5-0.5-0.9-1-1.3-1.4c-0.8-0.9-1.8-1.8-2.6-2.6c-0.9-0.8-1.9-1.5-2.9-2c-0.5-0.3-1-0.5-1.6-0.6
	c-1.5-0.3-3.1-0.1-3.9,1.1c-1.2,1.7-1.6,3.9,0,5.6C157.3,117.3,157.9,117.7,158.4,118z"/>
<path id="XMLID_2061_" fill="#606060" d="M208.9,113.5c0.3,0,0.6-0.1,1.1-0.2c0.3-0.1,0.6-0.3,0.9-0.4c0.3-0.1,0.6-0.3,0.9-0.4
	c0.7-0.3,1.3-0.5,1.8-0.7c1.2-0.6,2.3-1,3.3-1.6c1-0.6,2-1.2,2.9-2.1c0.5-0.4,0.9-0.8,1.2-1.3c0.8-1.4,1.2-2.8,0.3-4.1
	c-1.3-1.6-3.1-2.8-5.3-1.7c-0.6,0.3-1.1,0.7-1.6,1c-1,0.8-1.8,1.8-2.5,2.8c-0.7,1.1-1.4,2.3-1.9,3.5c-0.3,0.5-0.6,1.2-0.8,1.8
	c-0.1,0.3-0.3,0.5-0.4,0.9c-0.1,0.3-0.3,0.5-0.4,0.9c-0.1,0.4-0.1,0.7,0.2,1.1C208.5,113.3,208.7,113.4,208.9,113.5z"/>
<path id="XMLID_2060_" fill="#606060" d="M172,100.2c0.6,1.2,1.2,2.2,2,3.2c0.7,1,1.7,2,2.7,2.8c0.5,0.4,0.9,0.9,1.5,1.3
	c0.2,0.3,0.5,0.4,0.8,0.7c0.3,0.1,0.6,0.4,0.8,0.5c0.3,0.3,0.7,0.4,0.9,0.4c0.3,0,0.5,0,0.7-0.3c0.1-0.3,0.2-0.6,0.1-1
	c0-0.3-0.1-0.6-0.1-1c0-0.3-0.1-0.6-0.1-1c-0.1-0.8-0.2-1.4-0.2-1.9c-0.1-1.2-0.4-2.5-0.6-3.6c-0.3-1.1-0.7-2.3-1.2-3.3
	c-0.3-0.6-0.6-1-1-1.5c-1.1-1.1-2.5-2-3.9-1.5c-1.9,0.7-3.5,2.2-3.1,4.6C171.5,99.1,171.7,99.7,172,100.2z"/>
<path id="XMLID_2056_" fill="#606060" d="M0,0v400h400V0H0z M111.3,278.9c-1.6-5.4,1.6-11.1,7-12.6s11.1,1.6,12.6,7
	c1.6,5.4-1.6,11.1-7,12.6C118.5,287.4,112.9,284.3,111.3,278.9z M283.1,272.6c-11.6,11.9-26.9,16.1-42.2,20.5l-124.3,35.7l-0.3-21.5
	l29.9-8.6c2.2-0.6,3.4-2.8,3.1-4.9l-12.6-69.6c-0.2-0.8-0.7-1.7-1.5-2.1c-0.7-0.5-1.7-0.6-2.6-0.4l-17,4.9l-1.6-114.9
	c0-3.2,3.6-7.7,5.8-8.5c6-2,51.2-17.1,68.2-22c19.1-5.5,38.6-12.1,57.9-2.1c12.2,6.3,21.4,17.5,25.2,30.7
	c4.4,15.5,0.3,32.7-11.1,44.1l-4.3,4.4c1.8-1.9,16,7,17.8,8.3c5.6,3.9,10.5,8.7,14.4,14.2C307.2,207.7,306.9,248.1,283.1,272.6z"/>
<path id="XMLID_2055_" fill="#606060" d="M260.1,200.5c-3.8-1.9,0-7.1,0-10.7c1.6-38.7-58,2.5-57.6-11.5
	c1.3-17.7,12.7-38.1-0.6-53.6c-0.1-0.1-0.2-0.3-0.3-0.4c-7.7-8.4-20.9-0.9-18.2,9.3l0.2,0.6c0.7,1.9,1,3.9,1.1,6.1
	c0.3,21.8-19.6,34.4-26.2,53.2c-1.9,5.2-2.7,10.8-5.2,15.8c-1.1,2.2-2.8,4.2-4.2,6.2c-0.3,0.4-0.5,0.7-0.6,1
	c-1.3,2.3-1.8,4.9-1.5,7.5c0,0.1,0.2,1,0.9,5.2c0.9,5.2,9.2,48,9.7,50.5c0.4,2.2,2.1,4.1,4.4,4.7c5.7,1.3,12,0.8,17.7,0.7
	c6.9-0.1,13.7-0.6,20.5-1.4c13.3-1.6,26.4-4.4,39.1-8.4c11.6-3.5,23.9-10.8,21.3-25c-0.3-1.3-0.1-2.7,0.8-3.6
	c5.4-5.6,5.6-16.7,1.1-20.7c-0.8-0.8-0.9-2-0.3-2.8C268,215.2,265.8,203.4,260.1,200.5z"/>
<path id="XMLID_2054_" fill="#606060" d="M156.2,140.4c0.7,0,1.3,0.1,1.9,0c1.2-0.1,2.4-0.6,3.6-1c1.2-0.6,2.3-1.2,3.5-1.9
	c0.6-0.4,1.1-0.8,1.7-1.2c0.3-0.2,0.6-0.4,0.8-0.6c0.3-0.2,0.6-0.4,0.8-0.6c0.4-0.2,0.5-0.5,0.7-0.8c0.1-0.3,0.1-0.6-0.1-0.8
	c-0.2-0.3-0.5-0.4-0.9-0.5c-0.3,0-0.7-0.1-0.9-0.2c-0.3,0-0.6-0.2-0.9-0.2c-0.7-0.1-1.3-0.3-1.9-0.4c-1.3-0.2-2.5-0.4-3.7-0.5
	c-1.3-0.1-2.4-0.1-3.5,0.1c-0.6,0.1-1.2,0.2-1.8,0.5c-1.4,0.6-2.5,1.7-2.4,3.3C153.1,138,154.1,139.9,156.2,140.4z"/>
<path id="XMLID_2053_" fill="#7FCC83" d="M123.9,285.8c5.4-1.6,8.5-7.2,7-12.6c-1.6-5.4-7.2-8.5-12.6-7s-8.5,7.2-7,12.6
	C112.9,284.3,118.5,287.4,123.9,285.8z"/>
<path id="XMLID_2040_" fill="#7FCC83" d="M287.9,180.7c-3.9-5.5-8.9-10.3-14.4-14.2c-1.8-1.3-16-10.2-17.8-8.3l4.3-4.4
	c11.5-11.4,15.6-28.7,11.1-44.1c-3.8-13.2-13-24.4-25.2-30.7c-19.3-10-38.8-3.4-57.9,2.1c-17,4.9-62.2,20.1-68.2,22
	c-2.2,0.8-5.9,5.3-5.8,8.5l1.6,114.9l17-4.9c0.8-0.2,1.9-0.1,2.6,0.4c0.8,0.4,1.3,1.3,1.5,2.1l12.6,69.6c0.4,2.1-0.9,4.3-3.1,4.9
	l-29.9,8.6l0.3,21.5l124.3-35.7c15.4-4.4,30.6-8.5,42.2-20.5C306.9,248.1,307.2,207.7,287.9,180.7z M208.2,111.9
	c0.1-0.4,0.3-0.6,0.4-0.9c0.1-0.4,0.3-0.6,0.4-0.9c0.3-0.6,0.5-1.3,0.8-1.8c0.6-1.2,1.2-2.4,1.9-3.5c0.7-1.1,1.5-2,2.5-2.8
	c0.5-0.4,1-0.7,1.6-1c2.2-1.1,4,0.1,5.3,1.7c0.9,1.3,0.6,2.7-0.3,4.1c-0.3,0.5-0.7,1-1.2,1.3c-0.9,0.8-1.8,1.4-2.9,2.1
	c-1,0.6-2.2,1.1-3.3,1.6c-0.5,0.3-1.1,0.4-1.8,0.7c-0.3,0.1-0.6,0.3-0.9,0.4c-0.3,0.1-0.6,0.3-0.9,0.4c-0.4,0.1-0.7,0.2-1.1,0.2
	c-0.2,0-0.4-0.2-0.5-0.5C208.1,112.6,208.1,112.3,208.2,111.9z M193.3,94.2c0.2-0.6,0.3-1.2,0.6-1.7c1.1-2.1,3.3-2.4,5.3-1.7
	c1.5,0.5,2.1,1.9,2.2,3.5c0.1,0.6,0,1.2,0,1.8c-0.2,1.2-0.6,2.3-1.1,3.3c-0.5,1.1-1,2.2-1.7,3.3c-0.3,0.5-0.6,1.1-1,1.6
	c-0.1,0.3-0.3,0.5-0.5,0.8c-0.1,0.3-0.3,0.5-0.5,0.8c-0.2,0.4-0.5,0.6-0.8,0.8c-0.3,0.1-0.5,0-0.7-0.1c-0.2-0.2-0.4-0.6-0.5-0.9
	c-0.2-0.4-0.3-0.7-0.3-1l-0.3-0.9c-0.2-0.6-0.4-1.2-0.4-1.9c-0.3-1.3-0.5-2.5-0.5-3.9C193,96.6,193.1,95.4,193.3,94.2z M174.6,93.9
	c1.4-0.5,2.8,0.3,3.9,1.5c0.4,0.5,0.7,0.9,1,1.5c0.5,1.1,0.9,2.2,1.2,3.3c0.2,1.2,0.5,2.4,0.6,3.6c0,0.5,0.1,1.2,0.2,1.9
	c0,0.3,0.1,0.6,0.1,1c0,0.3,0.1,0.6,0.1,1c0,0.4,0,0.8-0.1,1c-0.1,0.3-0.4,0.3-0.7,0.3c-0.2,0-0.6-0.2-0.9-0.4
	c-0.3-0.1-0.6-0.4-0.8-0.5c-0.3-0.3-0.6-0.4-0.8-0.7c-0.6-0.4-1-0.8-1.5-1.3c-1-0.8-2-1.8-2.7-2.8c-0.8-1-1.5-2-2-3.2
	c-0.4-0.5-0.5-1.1-0.6-1.7C171.1,96.1,172.7,94.5,174.6,93.9z M156.8,111.3c0.9-1.3,2.4-1.5,3.9-1.1c0.6,0.2,1.1,0.4,1.6,0.6
	c1,0.5,2,1.2,2.9,2c0.9,0.8,1.8,1.7,2.6,2.6c0.4,0.5,0.8,0.9,1.3,1.4c0.2,0.3,0.5,0.4,0.6,0.7c0.2,0.2,0.4,0.5,0.6,0.7
	c0.3,0.4,0.4,0.7,0.5,1c0.1,0.3-0.1,0.5-0.4,0.7c-0.3,0.2-0.6,0.3-0.9,0.3c-0.3,0-0.7,0-1,0c-0.3,0-0.7,0-1,0
	c-0.7,0-1.4-0.1-1.9-0.1c-1.4-0.1-2.6-0.2-3.8-0.6c-1.2-0.3-2.4-0.7-3.5-1.3c-0.5-0.3-1.1-0.7-1.5-1.1
	C155.3,115.2,155.6,113,156.8,111.3z M155.5,132.6c0.6-0.3,1.1-0.4,1.8-0.5c1.2-0.2,2.3-0.2,3.5-0.1c1.3,0.1,2.4,0.3,3.7,0.5
	c0.6,0.1,1.2,0.2,1.9,0.4c0.3,0,0.6,0.2,0.9,0.2c0.2,0,0.6,0.2,0.9,0.2c0.5,0.1,0.7,0.2,0.9,0.5c0.2,0.2,0.3,0.5,0.1,0.8
	c-0.1,0.3-0.3,0.5-0.7,0.8c-0.3,0.2-0.6,0.4-0.8,0.6c-0.3,0.2-0.6,0.4-0.8,0.6c-0.6,0.4-1.1,0.8-1.7,1.2c-1.1,0.7-2.3,1.3-3.5,1.9
	c-1.2,0.5-2.4,0.9-3.6,1c-0.6,0.1-1.2,0-1.9,0c-2.2-0.5-3.2-2.4-3.2-4.6C152.9,134.3,154.1,133.2,155.5,132.6z M262.2,225.9
	c4.5,4.1,4.3,15.2-1.1,20.7c-0.9,0.9-1,2.3-0.8,3.6c2.6,14.2-9.7,21.4-21.3,25c-12.7,4-25.8,6.8-39.1,8.4
	c-6.8,0.8-13.6,1.3-20.5,1.4c-5.8,0.1-12,0.5-17.7-0.7c-2.3-0.6-3.9-2.4-4.4-4.7c-0.5-2.4-8.7-45.3-9.7-50.5
	c-0.8-4.2-0.9-5.1-0.9-5.2c-0.3-2.6,0.3-5.2,1.5-7.5c0.1-0.3,0.3-0.5,0.6-1c1.4-2.1,3.1-4,4.2-6.2c2.5-5,3.3-10.6,5.2-15.8
	c6.6-18.7,26.5-31.4,26.2-53.2c0-2.1-0.4-4.1-1.1-6.1l-0.2-0.6c-2.7-10.3,10.5-17.8,18.2-9.3c0.1,0.1,0.2,0.3,0.3,0.4
	c13.4,15.5,1.9,35.9,0.6,53.6c-0.4,13.9,59.3-27.3,57.6,11.5c-0.1,3.6-3.8,8.8,0,10.7c5.8,2.9,7.9,14.7,1.9,22.6
	C261.3,223.9,261.4,225.1,262.2,225.9z"/>
</svg>
